# xmcd
#
# Track frame offsets: 
#        150
#        10277
#        23370
#        39742
#        56112
#        69400
#        81669
#        99063
#        117613
#        136067
#        150381
#        168236
#
# Disc length: 2443 seconds
#
# Revision: 1
# Processed by: cddbd v1.5.2PL0 Copyright (c) Steve Scherf et al.
# Submitted via: ExactAudioCopy v1.0b1
#
DISCID=9009890c
DTITLE=Old Crow Medicine Show - EUTAW
DYEAR=2001
DGENRE=Country
TTITLE0=Raise A Ruckus
TTITLE1=Tear It Down
TTITLE2=Hesitation Blues
TTITLE3=Lonesome Road Blues
TTITLE4=That'll Be A Better Day
TTITLE5=Boll Weevil
TTITLE6=Down South Blues
TTITLE7=Cocaine Habit
TTITLE8=The Silver Dagger
TTITLE9=Trouble That I'm In
TTITLE10=Goodbye Booze
TTITLE11=Shack #9
EXTD=
EXTT0=
EXTT1=
EXTT2=
EXTT3=
EXTT4=
EXTT5=
EXTT6=
EXTT7=
EXTT8=
EXTT9=
EXTT10=
EXTT11=
PLAYORDER=
